<svg width="23" height="23" viewBox="0 0 23 23" fill="none" xmlns="http://www.w3.org/2000/svg">
<path d="M11.5 13.75C11.2219 13.75 10.95 13.8325 10.7187 13.987C10.4875 14.1415 10.3072 14.3611 10.2008 14.6181C10.0944 14.8751 10.0665 15.1578 10.1208 15.4306C10.175 15.7034 10.309 15.954 10.5056 16.1506C10.7023 16.3473 10.9529 16.4812 11.2257 16.5355C11.4984 16.5897 11.7812 16.5619 12.0382 16.4555C12.2951 16.349 12.5147 16.1688 12.6693 15.9375C12.8238 15.7063 12.9063 15.4344 12.9063 15.1562C12.9063 14.7833 12.7581 14.4256 12.4944 14.1619C12.2307 13.8982 11.873 13.75 11.5 13.75ZM11.5 12.0625C11.7984 12.0625 12.0845 11.944 12.2955 11.733C12.5065 11.522 12.625 11.2359 12.625 10.9375V7.5625C12.625 7.26413 12.5065 6.97798 12.2955 6.767C12.0845 6.55603 11.7984 6.4375 11.5 6.4375C11.2016 6.4375 10.9155 6.55603 10.7045 6.767C10.4935 6.97798 10.375 7.26413 10.375 7.5625V10.9375C10.375 11.2359 10.4935 11.522 10.7045 11.733C10.9155 11.944 11.2016 12.0625 11.5 12.0625ZM11.5 0.25C9.27497 0.25 7.09989 0.909801 5.24984 2.14597C3.39979 3.38213 1.95785 5.13914 1.10636 7.19481C0.254874 9.25048 0.0320869 11.5125 0.466171 13.6948C0.900254 15.8771 1.97171 17.8816 3.54505 19.455C5.11839 21.0283 7.12295 22.0998 9.30524 22.5338C11.4875 22.9679 13.7495 22.7451 15.8052 21.8936C17.8609 21.0422 19.6179 19.6002 20.854 17.7502C22.0902 15.9001 22.75 13.725 22.75 11.5C22.7467 8.51733 21.5604 5.65778 19.4513 3.54871C17.3422 1.43965 14.4827 0.253317 11.5 0.25ZM11.5 20.5C9.71997 20.5 7.97992 19.9722 6.49987 18.9832C5.01983 17.9943 3.86628 16.5887 3.18509 14.9442C2.5039 13.2996 2.32567 11.49 2.67294 9.74419C3.0202 7.99836 3.87737 6.39471 5.13604 5.13604C6.39472 3.87737 7.99836 3.0202 9.74419 2.67293C11.49 2.32567 13.2996 2.5039 14.9442 3.18508C16.5887 3.86627 17.9943 5.01983 18.9832 6.49987C19.9722 7.97991 20.5 9.71997 20.5 11.5C20.4973 13.8861 19.5482 16.1737 17.861 17.8609C16.1737 19.5482 13.8861 20.4973 11.5 20.5Z" fill="black"/>
</svg>
