<svg width="25" height="25" viewBox="0 0 25 25" fill="none" xmlns="http://www.w3.org/2000/svg">
<path d="M24.1358 9.99903C23.7881 9.58156 23.3529 9.2455 22.8611 9.01457C22.3692 8.78364 21.8327 8.66347 21.2893 8.66254H15.6458L16.3389 6.89292C16.6272 6.1181 16.7232 5.28492 16.6187 4.46485C16.5142 3.64478 16.2123 2.8623 15.7389 2.18452C15.2655 1.50675 14.6347 0.953914 13.9007 0.573441C13.1667 0.192968 12.3514 -0.00378603 11.5246 5.51815e-05C11.2865 0.000551866 11.0537 0.0696956 10.8539 0.199197C10.6542 0.328698 10.496 0.513059 10.3984 0.730178L6.8712 8.66254H3.96282C2.97812 8.66254 2.03375 9.05367 1.33746 9.7499C0.641171 10.4461 0.25 11.3904 0.25 12.375V21.0375C0.25 22.0221 0.641171 22.9664 1.33746 23.6626C2.03375 24.3589 2.97812 24.75 3.96282 24.75H19.7176C20.5861 24.7497 21.4271 24.4449 22.0942 23.8887C22.7612 23.3325 23.2122 22.5601 23.3685 21.7058L24.9403 13.0433C25.0375 12.5079 25.0158 11.9577 24.8768 11.4317C24.7378 10.9056 24.4848 10.4165 24.1358 9.99903ZM6.43804 22.275H3.96282C3.63459 22.275 3.3198 22.1446 3.0877 21.9126C2.85561 21.6805 2.72522 21.3657 2.72522 21.0375V12.375C2.72522 12.0468 2.85561 11.7321 3.0877 11.5C3.3198 11.2679 3.63459 11.1375 3.96282 11.1375H6.43804V22.275ZM22.5269 12.5978L20.9552 21.2603C20.9025 21.5485 20.7491 21.8088 20.5225 21.9946C20.2959 22.1804 20.0106 22.2798 19.7176 22.275H8.91325V10.1599L12.2795 2.58642C12.6261 2.68744 12.9479 2.85918 13.2247 3.09081C13.5014 3.32244 13.7272 3.60893 13.8877 3.93219C14.0482 4.25546 14.1399 4.60848 14.1571 4.96898C14.1742 5.32947 14.1165 5.68961 13.9874 6.02667L13.3315 7.79629C13.1917 8.17033 13.1446 8.57263 13.194 8.96886C13.2434 9.36508 13.388 9.74347 13.6153 10.0717C13.8427 10.4 14.1461 10.6684 14.4997 10.8539C14.8533 11.0395 15.2465 11.1368 15.6458 11.1375H21.2893C21.4711 11.1372 21.6508 11.177 21.8155 11.254C21.9802 11.331 22.1259 11.4433 22.2423 11.583C22.3615 11.7208 22.4488 11.8832 22.498 12.0586C22.5473 12.234 22.5571 12.4181 22.5269 12.5978Z" fill="black"/>
</svg>
