<svg width="20" height="24" viewBox="0 0 20 24" fill="none" xmlns="http://www.w3.org/2000/svg">
<path d="M10 10.6667C11.1208 10.6667 12.2164 10.3539 13.1483 9.76784C14.0802 9.18181 14.8065 8.34885 15.2354 7.37431C15.6643 6.39978 15.7765 5.32742 15.5578 4.29285C15.3392 3.25829 14.7995 2.30798 14.007 1.5621C13.2145 0.816219 12.2048 0.308269 11.1056 0.102481C10.0063 -0.103307 8.86695 0.00231083 7.8315 0.405978C6.79605 0.809646 5.91104 1.49323 5.28838 2.37029C4.66572 3.24736 4.33337 4.2785 4.33337 5.33334C4.33337 6.74782 4.9304 8.10438 5.9931 9.10457C7.05581 10.1048 8.49715 10.6667 10 10.6667ZM18.5 24C18.8758 24 19.2361 23.8595 19.5018 23.6095C19.7675 23.3594 19.9167 23.0203 19.9167 22.6667C19.9167 20.1913 18.8719 17.8173 17.0122 16.067C15.1524 14.3167 12.6301 13.3333 10 13.3333C7.36998 13.3333 4.84763 14.3167 2.9879 16.067C1.12816 17.8173 0.0833741 20.1913 0.083374 22.6667C0.083374 23.0203 0.23263 23.3594 0.498306 23.6095C0.763983 23.8595 1.12432 24 1.50004 24H18.5Z" fill="black"/>
</svg>
